<svg xmlns="http://www.w3.org/2000/svg" viewBox="0 0 900 620" width="900" height="620"><defs>
<filter id="sh" x="-30%" y="-30%" width="160%" height="160%"><feDropShadow dx="0" dy="22" stdDeviation="34" flood-color="#1A1F44" flood-opacity="0.16"/></filter>
<filter id="sh2" x="-40%" y="-40%" width="180%" height="180%"><feDropShadow dx="0" dy="8" stdDeviation="16" flood-color="#1A1F44" flood-opacity="0.10"/></filter>
<linearGradient id="aBlue" x1="0" y1="0" x2="0" y2="1"><stop offset="0" stop-color="#3B82F6" stop-opacity="0.32"/><stop offset="1" stop-color="#3B82F6" stop-opacity="0"/></linearGradient>
<linearGradient id="aViolet" x1="0" y1="0" x2="0" y2="1"><stop offset="0" stop-color="#6E62E8" stop-opacity="0.30"/><stop offset="1" stop-color="#6E62E8" stop-opacity="0"/></linearGradient>
<linearGradient id="barB" x1="0" y1="0" x2="0" y2="1"><stop offset="0" stop-color="#5B9CF8"/><stop offset="1" stop-color="#3B82F6"/></linearGradient>
<radialGradient id="gB" cx="0.5" cy="0.5" r="0.5"><stop offset="0" stop-color="#3B82F6" stop-opacity="0.22"/><stop offset="1" stop-color="#3B82F6" stop-opacity="0"/></radialGradient>
<radialGradient id="gV" cx="0.5" cy="0.5" r="0.5"><stop offset="0" stop-color="#6E62E8" stop-opacity="0.20"/><stop offset="1" stop-color="#6E62E8" stop-opacity="0"/></radialGradient>
<radialGradient id="gA" cx="0.5" cy="0.5" r="0.5"><stop offset="0" stop-color="#F5A623" stop-opacity="0.18"/><stop offset="1" stop-color="#F5A623" stop-opacity="0"/></radialGradient>
<radialGradient id="gT" cx="0.5" cy="0.5" r="0.5"><stop offset="0" stop-color="#1FB6A6" stop-opacity="0.18"/><stop offset="1" stop-color="#1FB6A6" stop-opacity="0"/></radialGradient>
</defs><rect width="900" height="620" fill="none"/><g filter="url(#sh)"><rect x="24" y="20" width="852" height="580" rx="20" fill="#fff"/></g><path d="M24 40 a20 20 0 0 1 20 -20 H856 a20 20 0 0 1 20 20 V72 H24 Z" fill="#FBFCFE"/><line x1="24" y1="72" x2="876" y2="72" stroke="#EAEDF4"/><circle cx="48" cy="46" r="5.5" fill="#FF6058"/><circle cx="68" cy="46" r="5.5" fill="#FEBC2E"/><circle cx="88" cy="46" r="5.5" fill="#28C840"/><text x="120" y="51" font-family="Arial,Helvetica,sans-serif" font-size="15" font-weight="600" fill="#1E1E24" text-anchor="start">Crest · Overview</text><rect x="690" y="32" width="92" height="28" rx="8" fill="#3B82F6"/><text x="736" y="51" font-family="Arial,Helvetica,sans-serif" font-size="13" font-weight="600" fill="#FFFFFF" text-anchor="middle">Export</text><circle cx="812" cy="46" r="13" fill="#6E62E8"/><circle cx="834" cy="46" r="13" fill="#F5A623"/><circle cx="856" cy="46" r="13" fill="#1FB6A6"/><rect x="48" y="96" width="252" height="104" rx="14" fill="#F5F7FB"/><text x="70" y="128" font-family="Arial,Helvetica,sans-serif" font-size="13" font-weight="400" fill="#8990A6" text-anchor="start">Revenue</text><text x="70" y="162" font-family="Arial,Helvetica,sans-serif" font-size="26" font-weight="700" fill="#1E1E24" text-anchor="start">¥ 2.84M</text><rect x="70" y="172" width="64" height="20" rx="10" fill="#E7F7F4"/><text x="102" y="186" font-family="Arial,Helvetica,sans-serif" font-size="11" font-weight="700" fill="#1FB6A6" text-anchor="middle">+12.4%</text><polyline points="198,177 214,170 230,163 246,174 262,167 278,160" fill="none" stroke="#3B82F6" stroke-width="2.5" stroke-linecap="round" stroke-linejoin="round"/><rect x="320" y="96" width="252" height="104" rx="14" fill="#F5F7FB"/><text x="342" y="128" font-family="Arial,Helvetica,sans-serif" font-size="13" font-weight="400" fill="#8990A6" text-anchor="start">Active Users</text><text x="342" y="162" font-family="Arial,Helvetica,sans-serif" font-size="26" font-weight="700" fill="#1E1E24" text-anchor="start">48,210</text><rect x="342" y="172" width="64" height="20" rx="10" fill="#E7F7F4"/><text x="374" y="186" font-family="Arial,Helvetica,sans-serif" font-size="11" font-weight="700" fill="#1FB6A6" text-anchor="middle">+6.1%</text><polyline points="470,177 486,170 502,163 518,174 534,167 550,160" fill="none" stroke="#6E62E8" stroke-width="2.5" stroke-linecap="round" stroke-linejoin="round"/><rect x="592" y="96" width="252" height="104" rx="14" fill="#F5F7FB"/><text x="614" y="128" font-family="Arial,Helvetica,sans-serif" font-size="13" font-weight="400" fill="#8990A6" text-anchor="start">Conversion</text><text x="614" y="162" font-family="Arial,Helvetica,sans-serif" font-size="26" font-weight="700" fill="#1E1E24" text-anchor="start">3.92%</text><rect x="614" y="172" width="64" height="20" rx="10" fill="#FDECEC"/><text x="646" y="186" font-family="Arial,Helvetica,sans-serif" font-size="11" font-weight="700" fill="#EF6A6A" text-anchor="middle">-0.3%</text><polyline points="742,177 758,170 774,163 790,174 806,167 822,160" fill="none" stroke="#1FB6A6" stroke-width="2.5" stroke-linecap="round" stroke-linejoin="round"/><rect x="48" y="216" width="500" height="316" rx="16" fill="#fff" stroke="#EAEDF4"/><text x="72" y="252" font-family="Arial,Helvetica,sans-serif" font-size="15" font-weight="700" fill="#1E1E24" text-anchor="start">Revenue Trend</text><text x="72" y="274" font-family="Arial,Helvetica,sans-serif" font-size="12" font-weight="400" fill="#AEB3C6" text-anchor="start">Last 12 months</text><line x1="72" y1="302" x2="524" y2="302" stroke="#F1F3F8"/><line x1="72" y1="357" x2="524" y2="357" stroke="#F1F3F8"/><line x1="72" y1="413" x2="524" y2="413" stroke="#F1F3F8"/><line x1="72" y1="468" x2="524" y2="468" stroke="#F1F3F8"/><path d="M72 393 L113 385 L154 398 L195 372 L236 365 L277 377 L319 352 L360 344 L401 355 L442 332 L483 322 L524 310 L524 468 L72 468 Z" fill="url(#aBlue)"/><path d="M72 393 L113 385 L154 398 L195 372 L236 365 L277 377 L319 352 L360 344 L401 355 L442 332 L483 322 L524 310" fill="none" stroke="#3B82F6" stroke-width="3.5" stroke-linecap="round" stroke-linejoin="round"/><circle cx="524" cy="310" r="6" fill="#fff" stroke="#3B82F6" stroke-width="3.5"/><text x="72.0" y="490" font-family="Arial,Helvetica,sans-serif" font-size="10" font-weight="400" fill="#AEB3C6" text-anchor="middle">M1</text><text x="154.1818181818182" y="490" font-family="Arial,Helvetica,sans-serif" font-size="10" font-weight="400" fill="#AEB3C6" text-anchor="middle">M3</text><text x="236.36363636363637" y="490" font-family="Arial,Helvetica,sans-serif" font-size="10" font-weight="400" fill="#AEB3C6" text-anchor="middle">M5</text><text x="318.5454545454545" y="490" font-family="Arial,Helvetica,sans-serif" font-size="10" font-weight="400" fill="#AEB3C6" text-anchor="middle">M7</text><text x="400.72727272727275" y="490" font-family="Arial,Helvetica,sans-serif" font-size="10" font-weight="400" fill="#AEB3C6" text-anchor="middle">M9</text><text x="482.90909090909093" y="490" font-family="Arial,Helvetica,sans-serif" font-size="10" font-weight="400" fill="#AEB3C6" text-anchor="middle">M11</text><rect x="572" y="216" width="280" height="150" rx="16" fill="#fff" stroke="#EAEDF4"/><text x="594" y="250" font-family="Arial,Helvetica,sans-serif" font-size="14" font-weight="700" fill="#1E1E24" text-anchor="start">Channels</text><path d="M638.0 268.0 A40 40 0 0 1 650.4 346.0" fill="none" stroke="#3B82F6" stroke-width="16"/><path d="M650.4 346.0 A40 40 0 0 1 598.0 308.0" fill="none" stroke="#6E62E8" stroke-width="16"/><path d="M598.0 308.0 A40 40 0 0 1 638.0 268.0" fill="none" stroke="#F5A623" stroke-width="16"/><rect x="700" y="272" width="11" height="11" rx="3" fill="#3B82F6"/><text x="720" y="282" font-family="Arial,Helvetica,sans-serif" font-size="12" font-weight="400" fill="#6A7088" text-anchor="start">Organic</text><rect x="700" y="298" width="11" height="11" rx="3" fill="#6E62E8"/><text x="720" y="308" font-family="Arial,Helvetica,sans-serif" font-size="12" font-weight="400" fill="#6A7088" text-anchor="start">Referral</text><rect x="700" y="324" width="11" height="11" rx="3" fill="#F5A623"/><text x="720" y="334" font-family="Arial,Helvetica,sans-serif" font-size="12" font-weight="400" fill="#6A7088" text-anchor="start">Ads</text><rect x="572" y="378" width="280" height="154" rx="16" fill="#fff" stroke="#EAEDF4"/><text x="594" y="412" font-family="Arial,Helvetica,sans-serif" font-size="14" font-weight="700" fill="#1E1E24" text-anchor="start">Weekly</text><rect x="598" y="482" width="18" height="24" rx="5" fill="#3B82F6" opacity="0.9"/><rect x="632" y="469" width="18" height="37" rx="5" fill="#3B82F6" opacity="0.55"/><rect x="666" y="456" width="18" height="50" rx="5" fill="#3B82F6" opacity="0.9"/><rect x="700" y="443" width="18" height="63" rx="5" fill="#3B82F6" opacity="0.55"/><rect x="734" y="430" width="18" height="76" rx="5" fill="#3B82F6" opacity="0.9"/><rect x="768" y="417" width="18" height="89" rx="5" fill="#6E62E8" opacity="0.55"/><rect x="802" y="474" width="18" height="32" rx="5" fill="#3B82F6" opacity="0.9"/></svg>