<svg xmlns="http://www.w3.org/2000/svg" viewBox="0 0 420 320" width="420" height="320"><defs>
<filter id="sh" x="-30%" y="-30%" width="160%" height="160%"><feDropShadow dx="0" dy="22" stdDeviation="34" flood-color="#1A1F44" flood-opacity="0.16"/></filter>
<filter id="sh2" x="-40%" y="-40%" width="180%" height="180%"><feDropShadow dx="0" dy="8" stdDeviation="16" flood-color="#1A1F44" flood-opacity="0.10"/></filter>
<linearGradient id="aBlue" x1="0" y1="0" x2="0" y2="1"><stop offset="0" stop-color="#3B82F6" stop-opacity="0.32"/><stop offset="1" stop-color="#3B82F6" stop-opacity="0"/></linearGradient>
<linearGradient id="aViolet" x1="0" y1="0" x2="0" y2="1"><stop offset="0" stop-color="#6E62E8" stop-opacity="0.30"/><stop offset="1" stop-color="#6E62E8" stop-opacity="0"/></linearGradient>
<linearGradient id="barB" x1="0" y1="0" x2="0" y2="1"><stop offset="0" stop-color="#5B9CF8"/><stop offset="1" stop-color="#3B82F6"/></linearGradient>
<radialGradient id="gB" cx="0.5" cy="0.5" r="0.5"><stop offset="0" stop-color="#3B82F6" stop-opacity="0.22"/><stop offset="1" stop-color="#3B82F6" stop-opacity="0"/></radialGradient>
<radialGradient id="gV" cx="0.5" cy="0.5" r="0.5"><stop offset="0" stop-color="#6E62E8" stop-opacity="0.20"/><stop offset="1" stop-color="#6E62E8" stop-opacity="0"/></radialGradient>
<radialGradient id="gA" cx="0.5" cy="0.5" r="0.5"><stop offset="0" stop-color="#F5A623" stop-opacity="0.18"/><stop offset="1" stop-color="#F5A623" stop-opacity="0"/></radialGradient>
<radialGradient id="gT" cx="0.5" cy="0.5" r="0.5"><stop offset="0" stop-color="#1FB6A6" stop-opacity="0.18"/><stop offset="1" stop-color="#1FB6A6" stop-opacity="0"/></radialGradient>
</defs><rect width="420" height="320" fill="none"/><g filter="url(#sh2)"><rect x="90" y="80" width="240" height="170" rx="18" fill="#fff"/></g><rect x="120" y="120" width="150" height="9" rx="4" fill="#E7EAF2"/><rect x="120" y="146" width="180" height="9" rx="4" fill="#E7EAF2"/><rect x="120" y="172" width="120" height="9" rx="4" fill="#E7EAF2"/><rect x="120" y="120" width="150" height="9" rx="4" fill="#6E62E8" opacity="0.5"/><circle cx="150" cy="250" r="26" fill="#6E62E8" stroke="#fff" stroke-width="5"/><circle cx="192" cy="250" r="26" fill="#F5A623" stroke="#fff" stroke-width="5"/><circle cx="234" cy="250" r="26" fill="#1FB6A6" stroke="#fff" stroke-width="5"/><g transform="translate(280,160)"><path d="M2 2 L2 26 L9 19 L14 28 L19 25 L14 16 L22 16 Z" fill="#3B82F6" stroke="#fff" stroke-width="1.5"/><rect x="20" y="20" width="46" height="18" rx="9" fill="#3B82F6"/></g></svg>