<svg xmlns="http://www.w3.org/2000/svg" viewBox="0 0 420 320" width="420" height="320"><defs>
<filter id="sh" x="-30%" y="-30%" width="160%" height="160%"><feDropShadow dx="0" dy="22" stdDeviation="34" flood-color="#1A1F44" flood-opacity="0.16"/></filter>
<filter id="sh2" x="-40%" y="-40%" width="180%" height="180%"><feDropShadow dx="0" dy="8" stdDeviation="16" flood-color="#1A1F44" flood-opacity="0.10"/></filter>
<linearGradient id="aBlue" x1="0" y1="0" x2="0" y2="1"><stop offset="0" stop-color="#3B82F6" stop-opacity="0.32"/><stop offset="1" stop-color="#3B82F6" stop-opacity="0"/></linearGradient>
<linearGradient id="aViolet" x1="0" y1="0" x2="0" y2="1"><stop offset="0" stop-color="#6E62E8" stop-opacity="0.30"/><stop offset="1" stop-color="#6E62E8" stop-opacity="0"/></linearGradient>
<linearGradient id="barB" x1="0" y1="0" x2="0" y2="1"><stop offset="0" stop-color="#5B9CF8"/><stop offset="1" stop-color="#3B82F6"/></linearGradient>
<radialGradient id="gB" cx="0.5" cy="0.5" r="0.5"><stop offset="0" stop-color="#3B82F6" stop-opacity="0.22"/><stop offset="1" stop-color="#3B82F6" stop-opacity="0"/></radialGradient>
<radialGradient id="gV" cx="0.5" cy="0.5" r="0.5"><stop offset="0" stop-color="#6E62E8" stop-opacity="0.20"/><stop offset="1" stop-color="#6E62E8" stop-opacity="0"/></radialGradient>
<radialGradient id="gA" cx="0.5" cy="0.5" r="0.5"><stop offset="0" stop-color="#F5A623" stop-opacity="0.18"/><stop offset="1" stop-color="#F5A623" stop-opacity="0"/></radialGradient>
<radialGradient id="gT" cx="0.5" cy="0.5" r="0.5"><stop offset="0" stop-color="#1FB6A6" stop-opacity="0.18"/><stop offset="1" stop-color="#1FB6A6" stop-opacity="0"/></radialGradient>
</defs><rect width="420" height="320" fill="none"/><line x1="210" y1="160" x2="90" y2="90" stroke="#D7DBEA" stroke-width="3"/><line x1="210" y1="160" x2="330" y2="90" stroke="#D7DBEA" stroke-width="3"/><line x1="210" y1="160" x2="110" y2="250" stroke="#D7DBEA" stroke-width="3"/><line x1="210" y1="160" x2="320" y2="250" stroke="#D7DBEA" stroke-width="3"/><g filter="url(#sh2)"><circle cx="210" cy="160" r="30" fill="#fff"/></g><circle cx="210" cy="160" r="30" fill="#6E62E8" opacity="0.14"/><circle cx="210" cy="160" r="13" fill="#6E62E8"/><g filter="url(#sh2)"><circle cx="90" cy="90" r="22" fill="#fff"/></g><circle cx="90" cy="90" r="22" fill="#3B82F6" opacity="0.14"/><circle cx="90" cy="90" r="9" fill="#3B82F6"/><g filter="url(#sh2)"><circle cx="330" cy="90" r="22" fill="#fff"/></g><circle cx="330" cy="90" r="22" fill="#F5A623" opacity="0.14"/><circle cx="330" cy="90" r="9" fill="#F5A623"/><g filter="url(#sh2)"><circle cx="110" cy="250" r="22" fill="#fff"/></g><circle cx="110" cy="250" r="22" fill="#1FB6A6" opacity="0.14"/><circle cx="110" cy="250" r="9" fill="#1FB6A6"/><g filter="url(#sh2)"><circle cx="320" cy="250" r="20" fill="#fff"/></g><circle cx="320" cy="250" r="20" fill="#3B82F6" opacity="0.14"/><circle cx="320" cy="250" r="8" fill="#3B82F6"/></svg>