<svg xmlns="http://www.w3.org/2000/svg" viewBox="0 0 900 620" width="900" height="620"><defs>
<filter id="sh" x="-30%" y="-30%" width="160%" height="160%"><feDropShadow dx="0" dy="22" stdDeviation="34" flood-color="#1A1F44" flood-opacity="0.16"/></filter>
<filter id="sh2" x="-40%" y="-40%" width="180%" height="180%"><feDropShadow dx="0" dy="8" stdDeviation="16" flood-color="#1A1F44" flood-opacity="0.10"/></filter>
<linearGradient id="aBlue" x1="0" y1="0" x2="0" y2="1"><stop offset="0" stop-color="#3B82F6" stop-opacity="0.32"/><stop offset="1" stop-color="#3B82F6" stop-opacity="0"/></linearGradient>
<linearGradient id="aViolet" x1="0" y1="0" x2="0" y2="1"><stop offset="0" stop-color="#6E62E8" stop-opacity="0.30"/><stop offset="1" stop-color="#6E62E8" stop-opacity="0"/></linearGradient>
<linearGradient id="barB" x1="0" y1="0" x2="0" y2="1"><stop offset="0" stop-color="#5B9CF8"/><stop offset="1" stop-color="#3B82F6"/></linearGradient>
<radialGradient id="gB" cx="0.5" cy="0.5" r="0.5"><stop offset="0" stop-color="#3B82F6" stop-opacity="0.22"/><stop offset="1" stop-color="#3B82F6" stop-opacity="0"/></radialGradient>
<radialGradient id="gV" cx="0.5" cy="0.5" r="0.5"><stop offset="0" stop-color="#6E62E8" stop-opacity="0.20"/><stop offset="1" stop-color="#6E62E8" stop-opacity="0"/></radialGradient>
<radialGradient id="gA" cx="0.5" cy="0.5" r="0.5"><stop offset="0" stop-color="#F5A623" stop-opacity="0.18"/><stop offset="1" stop-color="#F5A623" stop-opacity="0"/></radialGradient>
<radialGradient id="gT" cx="0.5" cy="0.5" r="0.5"><stop offset="0" stop-color="#1FB6A6" stop-opacity="0.18"/><stop offset="1" stop-color="#1FB6A6" stop-opacity="0"/></radialGradient>
</defs><rect width="900" height="620" fill="none"/><g filter="url(#sh)"><rect x="24" y="20" width="852" height="580" rx="20" fill="#fff"/></g><path d="M24 40 a20 20 0 0 1 20 -20 H856 a20 20 0 0 1 20 20 V72 H24 Z" fill="#F7FCFB"/><line x1="24" y1="72" x2="876" y2="72" stroke="#EAEDF4"/><circle cx="48" cy="46" r="5.5" fill="#FF6058"/><circle cx="68" cy="46" r="5.5" fill="#FEBC2E"/><circle cx="88" cy="46" r="5.5" fill="#28C840"/><text x="120" y="51" font-family="Arial,Helvetica,sans-serif" font-size="15" font-weight="600" fill="#1E1E24" text-anchor="start">Pipeline · main</text><rect x="760" y="32" width="100" height="28" rx="14" fill="#E7F7F4"/><circle cx="782" cy="46" r="5" fill="#1FB6A6"/><text x="840" y="51" font-family="Arial,Helvetica,sans-serif" font-size="12" font-weight="700" fill="#11876F" text-anchor="middle">Passed</text><line x1="140" y1="180" x2="270" y2="180" stroke="#1FB6A6" stroke-width="4"/><g filter="url(#sh2)"><rect x="70" y="150" width="150" height="92" rx="16" fill="#fff"/></g><circle cx="100" cy="180" r="16" fill="#E7F7F4"/><path d="M93 180 l5 5 l9 -10" fill="none" stroke="#1FB6A6" stroke-width="3.5" stroke-linecap="round" stroke-linejoin="round"/><text x="126" y="178" font-family="Arial,Helvetica,sans-serif" font-size="15" font-weight="700" fill="#1E1E24" text-anchor="start">Commit</text><text x="126" y="198" font-family="Arial,Helvetica,sans-serif" font-size="12" font-weight="400" fill="#AEB3C6" text-anchor="start">1m 12s</text><rect x="88" y="216" width="114" height="7" rx="4" fill="#EEF1F7"/><rect x="88" y="216" width="114" height="7" rx="3.5" fill="#1FB6A6"/><line x1="340" y1="180" x2="470" y2="180" stroke="#1FB6A6" stroke-width="4"/><g filter="url(#sh2)"><rect x="270" y="150" width="150" height="92" rx="16" fill="#fff"/></g><circle cx="300" cy="180" r="16" fill="#E7F7F4"/><path d="M293 180 l5 5 l9 -10" fill="none" stroke="#1FB6A6" stroke-width="3.5" stroke-linecap="round" stroke-linejoin="round"/><text x="326" y="178" font-family="Arial,Helvetica,sans-serif" font-size="15" font-weight="700" fill="#1E1E24" text-anchor="start">Build</text><text x="326" y="198" font-family="Arial,Helvetica,sans-serif" font-size="12" font-weight="400" fill="#AEB3C6" text-anchor="start">1m 12s</text><rect x="288" y="216" width="114" height="7" rx="4" fill="#EEF1F7"/><rect x="288" y="216" width="114" height="7" rx="3.5" fill="#1FB6A6"/><line x1="540" y1="180" x2="670" y2="180" stroke="#1FB6A6" stroke-width="4"/><g filter="url(#sh2)"><rect x="470" y="150" width="150" height="92" rx="16" fill="#fff"/></g><circle cx="500" cy="180" r="16" fill="#E7F7F4"/><path d="M493 180 l5 5 l9 -10" fill="none" stroke="#1FB6A6" stroke-width="3.5" stroke-linecap="round" stroke-linejoin="round"/><text x="526" y="178" font-family="Arial,Helvetica,sans-serif" font-size="15" font-weight="700" fill="#1E1E24" text-anchor="start">Test</text><text x="526" y="198" font-family="Arial,Helvetica,sans-serif" font-size="12" font-weight="400" fill="#AEB3C6" text-anchor="start">1m 12s</text><rect x="488" y="216" width="114" height="7" rx="4" fill="#EEF1F7"/><rect x="488" y="216" width="114" height="7" rx="3.5" fill="#1FB6A6"/><g filter="url(#sh2)"><rect x="670" y="150" width="150" height="92" rx="16" fill="#fff"/></g><circle cx="700" cy="180" r="16" fill="#FEF3E0"/><circle cx="700" cy="180" r="6" fill="#F5A623"/><text x="726" y="178" font-family="Arial,Helvetica,sans-serif" font-size="15" font-weight="700" fill="#1E1E24" text-anchor="start">Deploy</text><text x="726" y="198" font-family="Arial,Helvetica,sans-serif" font-size="12" font-weight="400" fill="#AEB3C6" text-anchor="start">Running</text><rect x="688" y="216" width="114" height="7" rx="4" fill="#EEF1F7"/><rect x="688" y="216" width="68" height="7" rx="3.5" fill="#F5A623"/><rect x="48" y="300" width="804" height="240" rx="16" fill="#F5F7FB"/><text x="72" y="334" font-family="Arial,Helvetica,sans-serif" font-size="15" font-weight="700" fill="#1E1E24" text-anchor="start">Commit history</text><line x1="92" y1="364" x2="92" y2="524" stroke="#D7DBE6" stroke-width="3"/><circle cx="92" cy="374" r="8" fill="#6E62E8" stroke="#fff" stroke-width="3"/><path d="M92 374 C122 374 122 354 152 354" fill="none" stroke="#D7DBE6" stroke-width="3"/><circle cx="152" cy="354" r="6" fill="#6E62E8" opacity="0.6"/><text x="122" y="379" font-family="Arial,Helvetica,sans-serif" font-size="14" font-weight="400" fill="#3C3A45" text-anchor="start">feat: api gateway</text><text x="760" y="379" font-family="Arial,Helvetica,sans-serif" font-size="12" font-weight="400" fill="#AEB3C6" text-anchor="start">#4821</text><circle cx="92" cy="414" r="8" fill="#3B82F6" stroke="#fff" stroke-width="3"/><text x="122" y="419" font-family="Arial,Helvetica,sans-serif" font-size="14" font-weight="400" fill="#3C3A45" text-anchor="start">fix: auth refresh</text><text x="760" y="419" font-family="Arial,Helvetica,sans-serif" font-size="12" font-weight="400" fill="#AEB3C6" text-anchor="start">#4814</text><circle cx="92" cy="454" r="8" fill="#1FB6A6" stroke="#fff" stroke-width="3"/><text x="122" y="459" font-family="Arial,Helvetica,sans-serif" font-size="14" font-weight="400" fill="#3C3A45" text-anchor="start">chore: bump deps</text><text x="760" y="459" font-family="Arial,Helvetica,sans-serif" font-size="12" font-weight="400" fill="#AEB3C6" text-anchor="start">#4807</text><circle cx="92" cy="494" r="8" fill="#F5A623" stroke="#fff" stroke-width="3"/><path d="M92 494 C122 494 122 474 152 474" fill="none" stroke="#D7DBE6" stroke-width="3"/><circle cx="152" cy="474" r="6" fill="#F5A623" opacity="0.6"/><text x="122" y="499" font-family="Arial,Helvetica,sans-serif" font-size="14" font-weight="400" fill="#3C3A45" text-anchor="start">feat: billing view</text><text x="760" y="499" font-family="Arial,Helvetica,sans-serif" font-size="12" font-weight="400" fill="#AEB3C6" text-anchor="start">#4800</text></svg>