<svg xmlns="http://www.w3.org/2000/svg" viewBox="0 0 1100 800" width="1100" height="800"><defs>
<filter id="sh" x="-30%" y="-30%" width="160%" height="160%"><feDropShadow dx="0" dy="22" stdDeviation="34" flood-color="#1A1F44" flood-opacity="0.16"/></filter>
<filter id="sh2" x="-40%" y="-40%" width="180%" height="180%"><feDropShadow dx="0" dy="8" stdDeviation="16" flood-color="#1A1F44" flood-opacity="0.10"/></filter>
<linearGradient id="aBlue" x1="0" y1="0" x2="0" y2="1"><stop offset="0" stop-color="#3B82F6" stop-opacity="0.32"/><stop offset="1" stop-color="#3B82F6" stop-opacity="0"/></linearGradient>
<linearGradient id="aViolet" x1="0" y1="0" x2="0" y2="1"><stop offset="0" stop-color="#6E62E8" stop-opacity="0.30"/><stop offset="1" stop-color="#6E62E8" stop-opacity="0"/></linearGradient>
<linearGradient id="barB" x1="0" y1="0" x2="0" y2="1"><stop offset="0" stop-color="#5B9CF8"/><stop offset="1" stop-color="#3B82F6"/></linearGradient>
<radialGradient id="gB" cx="0.5" cy="0.5" r="0.5"><stop offset="0" stop-color="#3B82F6" stop-opacity="0.22"/><stop offset="1" stop-color="#3B82F6" stop-opacity="0"/></radialGradient>
<radialGradient id="gV" cx="0.5" cy="0.5" r="0.5"><stop offset="0" stop-color="#6E62E8" stop-opacity="0.20"/><stop offset="1" stop-color="#6E62E8" stop-opacity="0"/></radialGradient>
<radialGradient id="gA" cx="0.5" cy="0.5" r="0.5"><stop offset="0" stop-color="#F5A623" stop-opacity="0.18"/><stop offset="1" stop-color="#F5A623" stop-opacity="0"/></radialGradient>
<radialGradient id="gT" cx="0.5" cy="0.5" r="0.5"><stop offset="0" stop-color="#1FB6A6" stop-opacity="0.18"/><stop offset="1" stop-color="#1FB6A6" stop-opacity="0"/></radialGradient>
</defs><rect width="1100" height="800" fill="#FBFBFE"/><circle cx="240" cy="200" r="320" fill="url(#gB)"/><circle cx="900" cy="240" r="340" fill="url(#gV)"/><circle cx="820" cy="640" r="300" fill="url(#gT)"/><circle cx="300" cy="640" r="280" fill="url(#gA)"/><line x1="0" y1="0" x2="0" y2="800" stroke="#5566AA" stroke-width="1" opacity="0.04"/><line x1="100" y1="0" x2="100" y2="800" stroke="#5566AA" stroke-width="1" opacity="0.04"/><line x1="200" y1="0" x2="200" y2="800" stroke="#5566AA" stroke-width="1" opacity="0.04"/><line x1="300" y1="0" x2="300" y2="800" stroke="#5566AA" stroke-width="1" opacity="0.04"/><line x1="400" y1="0" x2="400" y2="800" stroke="#5566AA" stroke-width="1" opacity="0.04"/><line x1="500" y1="0" x2="500" y2="800" stroke="#5566AA" stroke-width="1" opacity="0.04"/><line x1="600" y1="0" x2="600" y2="800" stroke="#5566AA" stroke-width="1" opacity="0.04"/><line x1="700" y1="0" x2="700" y2="800" stroke="#5566AA" stroke-width="1" opacity="0.04"/><line x1="800" y1="0" x2="800" y2="800" stroke="#5566AA" stroke-width="1" opacity="0.04"/><line x1="900" y1="0" x2="900" y2="800" stroke="#5566AA" stroke-width="1" opacity="0.04"/><line x1="1000" y1="0" x2="1000" y2="800" stroke="#5566AA" stroke-width="1" opacity="0.04"/><line x1="1100" y1="0" x2="1100" y2="800" stroke="#5566AA" stroke-width="1" opacity="0.04"/><line x1="0" y1="0" x2="1100" y2="0" stroke="#5566AA" stroke-width="1" opacity="0.04"/><line x1="0" y1="100" x2="1100" y2="100" stroke="#5566AA" stroke-width="1" opacity="0.04"/><line x1="0" y1="200" x2="1100" y2="200" stroke="#5566AA" stroke-width="1" opacity="0.04"/><line x1="0" y1="300" x2="1100" y2="300" stroke="#5566AA" stroke-width="1" opacity="0.04"/><line x1="0" y1="400" x2="1100" y2="400" stroke="#5566AA" stroke-width="1" opacity="0.04"/><line x1="0" y1="500" x2="1100" y2="500" stroke="#5566AA" stroke-width="1" opacity="0.04"/><line x1="0" y1="600" x2="1100" y2="600" stroke="#5566AA" stroke-width="1" opacity="0.04"/><line x1="0" y1="700" x2="1100" y2="700" stroke="#5566AA" stroke-width="1" opacity="0.04"/><line x1="0" y1="800" x2="1100" y2="800" stroke="#5566AA" stroke-width="1" opacity="0.04"/><g filter="url(#sh)" transform="rotate(-5 300 420)"><rect x="120" y="250" width="360" height="320" rx="18" fill="#fff"/></g><g transform="rotate(-5 300 420)"><rect x="120" y="250" width="360" height="46" rx="18" fill="#EEECFB"/><rect x="120" y="278" width="360" height="18" fill="#EEECFB"/><circle cx="146" cy="273" r="6" fill="#6E62E8"/><text x="166" y="278" font-family="Arial,Helvetica,sans-serif" font-size="13" font-weight="700" fill="#6E62E8" text-anchor="start">Memorica</text><text x="150" y="338" font-family="Arial,Helvetica,sans-serif" font-size="20" font-weight="700" fill="#1E1E24" text-anchor="start">Weekly Report</text><rect x="150" y="360" width="280" height="8" rx="4" fill="#EAEDF4"/><rect x="150" y="380" width="300" height="8" rx="4" fill="#EAEDF4"/><rect x="150" y="400" width="240" height="8" rx="4" fill="#EAEDF4"/><rect x="146" y="430" width="220" height="18" rx="5" fill="#FEF3E0"/><rect x="152" y="435" width="190" height="8" rx="4" fill="#D9A94E"/><rect x="150" y="466" width="300" height="8" rx="4" fill="#EAEDF4"/><rect x="150" y="486" width="260" height="8" rx="4" fill="#EAEDF4"/></g><g filter="url(#sh)" transform="rotate(5 820 430)"><rect x="640" y="270" width="340" height="300" rx="18" fill="#1B1B23"/></g><g transform="rotate(5 820 430)"><rect x="640" y="270" width="340" height="40" rx="18" fill="#16161D"/><circle cx="664" cy="290" r="5" fill="#FF6058"/><circle cx="682" cy="290" r="5" fill="#FEBC2E"/><circle cx="700" cy="290" r="5" fill="#28C840"/><rect x="670" y="331" width="40" height="10" rx="3" fill="#8B7CF6"/><rect x="720" y="331" width="80" height="10" rx="3" fill="#CFD2E6"/><rect x="810" y="331" width="70" height="10" rx="3" fill="#3FD0BD"/><rect x="670" y="361" width="180" height="10" rx="3" fill="#5A5A6E"/><rect x="670" y="391" width="90" height="10" rx="3" fill="#F5B53D"/><rect x="770" y="391" width="60" height="10" rx="3" fill="#CFD2E6"/><rect x="670" y="421" width="70" height="10" rx="3" fill="#CFD2E6"/><rect x="750" y="421" width="40" height="10" rx="3" fill="#8B7CF6"/><rect x="800" y="421" width="110" height="10" rx="3" fill="#CFD2E6"/></g><g filter="url(#sh)"><rect x="360" y="300" width="440" height="330" rx="20" fill="#fff"/></g><rect x="360" y="300" width="440" height="52" rx="20" fill="#fff"/><rect x="360" y="330" width="440" height="22" fill="#fff"/><line x1="360" y1="352" x2="800" y2="352" stroke="#EAEDF4"/><rect x="384" y="318" width="22" height="22" rx="7" fill="#3B82F6"/><text x="416" y="335" font-family="Arial,Helvetica,sans-serif" font-size="14" font-weight="700" fill="#1E1E24" text-anchor="start">Crest Overview</text><rect x="724" y="314" width="56" height="24" rx="7" fill="#3B82F6"/><rect x="384" y="372" width="124" height="62" rx="12" fill="#F5F7FB"/><rect x="398" y="386" width="60" height="8" rx="4" fill="#D9DEEA"/><text x="398" y="422" font-family="Arial,Helvetica,sans-serif" font-size="18" font-weight="700" fill="#1E1E24" text-anchor="start">¥2.8M</text><rect x="522" y="372" width="124" height="62" rx="12" fill="#F5F7FB"/><rect x="536" y="386" width="60" height="8" rx="4" fill="#D9DEEA"/><text x="536" y="422" font-family="Arial,Helvetica,sans-serif" font-size="18" font-weight="700" fill="#1E1E24" text-anchor="start">48.2K</text><rect x="660" y="372" width="124" height="62" rx="12" fill="#F5F7FB"/><rect x="674" y="386" width="60" height="8" rx="4" fill="#D9DEEA"/><text x="674" y="422" font-family="Arial,Helvetica,sans-serif" font-size="18" font-weight="700" fill="#1E1E24" text-anchor="start">3.9%</text><rect x="384" y="448" width="392" height="160" rx="12" fill="#F5F7FB"/><path d="M404 545 L448 554 L492 534 L536 540 L580 521 L624 527 L668 512 L712 519 L756 501 L756 588 L404 588 Z" fill="url(#aBlue)"/><path d="M404 545 L448 554 L492 534 L536 540 L580 521 L624 527 L668 512 L712 519 L756 501" fill="none" stroke="#3B82F6" stroke-width="3.5" stroke-linecap="round" stroke-linejoin="round"/><circle cx="756" cy="501" r="5.5" fill="#fff" stroke="#3B82F6" stroke-width="3.5"/><g filter="url(#sh)"><circle cx="376" cy="300" r="34" fill="#fff"/></g><g transform="translate(351,275) scale(0.5)"><rect x="8" y="8" width="40" height="40" rx="11" fill="#3B82F6"/><rect x="54" y="8" width="40" height="40" rx="11" fill="#6E62E8"/><rect x="8" y="54" width="40" height="40" rx="11" fill="#F5A623"/><rect x="54" y="54" width="40" height="40" rx="11" fill="#1FB6A6" transform="rotate(14 74.0 74.0)"/></g></svg>