<svg xmlns="http://www.w3.org/2000/svg" viewBox="0 0 200 200" width="200" height="200"><rect width="200" height="200" fill="none"/><circle cx="10" cy="10" r="3" fill="#6E72A0" opacity="0.18"/><circle cx="10" cy="50" r="3" fill="#6E72A0" opacity="0.18"/><circle cx="10" cy="90" r="3" fill="#6E72A0" opacity="0.18"/><circle cx="10" cy="130" r="3" fill="#6E72A0" opacity="0.18"/><circle cx="10" cy="170" r="3" fill="#6E72A0" opacity="0.18"/><circle cx="50" cy="10" r="3" fill="#6E72A0" opacity="0.18"/><circle cx="50" cy="50" r="3" fill="#6E72A0" opacity="0.18"/><circle cx="50" cy="90" r="3" fill="#6E72A0" opacity="0.18"/><circle cx="50" cy="130" r="3" fill="#6E72A0" opacity="0.18"/><circle cx="50" cy="170" r="3" fill="#6E72A0" opacity="0.18"/><circle cx="90" cy="10" r="3" fill="#6E72A0" opacity="0.18"/><circle cx="90" cy="50" r="3" fill="#6E72A0" opacity="0.18"/><circle cx="90" cy="90" r="3" fill="#6E72A0" opacity="0.18"/><circle cx="90" cy="130" r="3" fill="#6E72A0" opacity="0.18"/><circle cx="90" cy="170" r="3" fill="#6E72A0" opacity="0.18"/><circle cx="130" cy="10" r="3" fill="#6E72A0" opacity="0.18"/><circle cx="130" cy="50" r="3" fill="#6E72A0" opacity="0.18"/><circle cx="130" cy="90" r="3" fill="#6E72A0" opacity="0.18"/><circle cx="130" cy="130" r="3" fill="#6E72A0" opacity="0.18"/><circle cx="130" cy="170" r="3" fill="#6E72A0" opacity="0.18"/><circle cx="170" cy="10" r="3" fill="#6E72A0" opacity="0.18"/><circle cx="170" cy="50" r="3" fill="#6E72A0" opacity="0.18"/><circle cx="170" cy="90" r="3" fill="#6E72A0" opacity="0.18"/><circle cx="170" cy="130" r="3" fill="#6E72A0" opacity="0.18"/><circle cx="170" cy="170" r="3" fill="#6E72A0" opacity="0.18"/></svg>