<svg xmlns="http://www.w3.org/2000/svg" viewBox="0 0 900 620" width="900" height="620"><defs>
<filter id="sh" x="-30%" y="-30%" width="160%" height="160%"><feDropShadow dx="0" dy="22" stdDeviation="34" flood-color="#1A1F44" flood-opacity="0.16"/></filter>
<filter id="sh2" x="-40%" y="-40%" width="180%" height="180%"><feDropShadow dx="0" dy="8" stdDeviation="16" flood-color="#1A1F44" flood-opacity="0.10"/></filter>
<linearGradient id="aBlue" x1="0" y1="0" x2="0" y2="1"><stop offset="0" stop-color="#3B82F6" stop-opacity="0.32"/><stop offset="1" stop-color="#3B82F6" stop-opacity="0"/></linearGradient>
<linearGradient id="aViolet" x1="0" y1="0" x2="0" y2="1"><stop offset="0" stop-color="#6E62E8" stop-opacity="0.30"/><stop offset="1" stop-color="#6E62E8" stop-opacity="0"/></linearGradient>
<linearGradient id="barB" x1="0" y1="0" x2="0" y2="1"><stop offset="0" stop-color="#5B9CF8"/><stop offset="1" stop-color="#3B82F6"/></linearGradient>
<radialGradient id="gB" cx="0.5" cy="0.5" r="0.5"><stop offset="0" stop-color="#3B82F6" stop-opacity="0.22"/><stop offset="1" stop-color="#3B82F6" stop-opacity="0"/></radialGradient>
<radialGradient id="gV" cx="0.5" cy="0.5" r="0.5"><stop offset="0" stop-color="#6E62E8" stop-opacity="0.20"/><stop offset="1" stop-color="#6E62E8" stop-opacity="0"/></radialGradient>
<radialGradient id="gA" cx="0.5" cy="0.5" r="0.5"><stop offset="0" stop-color="#F5A623" stop-opacity="0.18"/><stop offset="1" stop-color="#F5A623" stop-opacity="0"/></radialGradient>
<radialGradient id="gT" cx="0.5" cy="0.5" r="0.5"><stop offset="0" stop-color="#1FB6A6" stop-opacity="0.18"/><stop offset="1" stop-color="#1FB6A6" stop-opacity="0"/></radialGradient>
</defs><rect width="900" height="620" fill="none"/><g filter="url(#sh)"><rect x="24" y="20" width="852" height="580" rx="20" fill="#1B1B23"/></g><path d="M24 40 a20 20 0 0 1 20 -20 H856 a20 20 0 0 1 20 20 V66 H24 Z" fill="#16161D"/><circle cx="48" cy="43" r="5.5" fill="#FF6058"/><circle cx="68" cy="43" r="5.5" fill="#FEBC2E"/><circle cx="88" cy="43" r="5.5" fill="#28C840"/><rect x="130" y="30" width="120" height="36" rx="8" fill="#1B1B23"/><text x="150" y="52" font-family="Arial,Helvetica,sans-serif" font-size="13" font-weight="400" fill="#CFD2E6" text-anchor="start">main.ts</text><circle cx="236" cy="48" r="4" fill="#F5B53D"/><text x="280" y="52" font-family="Arial,Helvetica,sans-serif" font-size="13" font-weight="400" fill="#4A4A5A" text-anchor="start">utils.ts</text><rect x="24" y="66" width="56" height="534" fill="#17171E"/><text x="64" y="100" font-family="Arial,Helvetica,sans-serif" font-size="12" font-weight="400" fill="#4A4A5A" text-anchor="end">1</text><rect x="100" y="87" width="46" height="11" rx="3.5" fill="#8B7CF6"/><rect x="158" y="87" width="70" height="11" rx="3.5" fill="#CFD2E6"/><rect x="240" y="87" width="120" height="11" rx="3.5" fill="#3FD0BD"/><text x="64" y="134" font-family="Arial,Helvetica,sans-serif" font-size="12" font-weight="400" fill="#4A4A5A" text-anchor="end">2</text><rect x="100" y="121" width="260" height="11" rx="3.5" fill="#5A5A6E"/><text x="64" y="168" font-family="Arial,Helvetica,sans-serif" font-size="12" font-weight="400" fill="#4A4A5A" text-anchor="end">3</text><rect x="100" y="155" width="40" height="11" rx="3.5" fill="#8B7CF6"/><rect x="152" y="155" width="90" height="11" rx="3.5" fill="#F5B53D"/><rect x="254" y="155" width="60" height="11" rx="3.5" fill="#CFD2E6"/><text x="64" y="202" font-family="Arial,Helvetica,sans-serif" font-size="12" font-weight="400" fill="#4A4A5A" text-anchor="end">4</text><rect x="124" y="189" width="40" height="11" rx="3.5" fill="#CFD2E6"/><rect x="176" y="189" width="50" height="11" rx="3.5" fill="#8B7CF6"/><rect x="238" y="189" width="110" height="11" rx="3.5" fill="#F5B53D"/><text x="64" y="236" font-family="Arial,Helvetica,sans-serif" font-size="12" font-weight="400" fill="#4A4A5A" text-anchor="end">5</text><rect x="172" y="223" width="120" height="11" rx="3.5" fill="#CFD2E6"/><rect x="304" y="223" width="90" height="11" rx="3.5" fill="#3FD0BD"/><text x="64" y="270" font-family="Arial,Helvetica,sans-serif" font-size="12" font-weight="400" fill="#4A4A5A" text-anchor="end">6</text><text x="64" y="304" font-family="Arial,Helvetica,sans-serif" font-size="12" font-weight="400" fill="#4A4A5A" text-anchor="end">7</text><rect x="100" y="291" width="60" height="11" rx="3.5" fill="#8B7CF6"/><rect x="172" y="291" width="130" height="11" rx="3.5" fill="#F5B53D"/><text x="64" y="338" font-family="Arial,Helvetica,sans-serif" font-size="12" font-weight="400" fill="#4A4A5A" text-anchor="end">8</text><rect x="124" y="325" width="80" height="11" rx="3.5" fill="#CFD2E6"/><rect x="216" y="325" width="40" height="11" rx="3.5" fill="#8B7CF6"/><rect x="268" y="325" width="140" height="11" rx="3.5" fill="#CFD2E6"/><text x="64" y="372" font-family="Arial,Helvetica,sans-serif" font-size="12" font-weight="400" fill="#4A4A5A" text-anchor="end">9</text><rect x="100" y="359" width="200" height="11" rx="3.5" fill="#3FD0BD"/><text x="64" y="406" font-family="Arial,Helvetica,sans-serif" font-size="12" font-weight="400" fill="#4A4A5A" text-anchor="end">10</text><rect x="124" y="393" width="50" height="11" rx="3.5" fill="#CFD2E6"/><rect x="186" y="393" width="80" height="11" rx="3.5" fill="#F5B53D"/><rect x="278" y="393" width="40" height="11" rx="3.5" fill="#CFD2E6"/><text x="64" y="440" font-family="Arial,Helvetica,sans-serif" font-size="12" font-weight="400" fill="#4A4A5A" text-anchor="end">11</text><rect x="100" y="427" width="46" height="11" rx="3.5" fill="#8B7CF6"/><rect x="158" y="427" width="110" height="11" rx="3.5" fill="#CFD2E6"/><text x="64" y="474" font-family="Arial,Helvetica,sans-serif" font-size="12" font-weight="400" fill="#4A4A5A" text-anchor="end">12</text><text x="64" y="508" font-family="Arial,Helvetica,sans-serif" font-size="12" font-weight="400" fill="#4A4A5A" text-anchor="end">13</text><rect x="124" y="495" width="100" height="11" rx="3.5" fill="#F5B53D"/><rect x="236" y="495" width="150" height="11" rx="3.5" fill="#CFD2E6"/><text x="64" y="542" font-family="Arial,Helvetica,sans-serif" font-size="12" font-weight="400" fill="#4A4A5A" text-anchor="end">14</text><rect x="100" y="529" width="180" height="11" rx="3.5" fill="#5A5A6E"/><rect x="24" y="572" width="852" height="28" rx="0" fill="#16161D"/><rect x="24" y="572" width="852" height="28" fill="#16161D"/><circle cx="48" cy="586" r="4" fill="#1FB6A6"/><text x="62" y="590" font-family="Arial,Helvetica,sans-serif" font-size="11" font-weight="400" fill="#CFD2E6" text-anchor="start">main</text><text x="820" y="590" font-family="Arial,Helvetica,sans-serif" font-size="11" font-weight="400" fill="#4A4A5A" text-anchor="start">TypeScript</text><path d="M24 580 V580 a20 20 0 0 0 20 20 H856 a20 20 0 0 0 20 -20 V580" fill="none"/></svg>