<svg xmlns="http://www.w3.org/2000/svg" viewBox="0 0 760 520" width="760" height="520"><defs><filter id="sh" x="-40%" y="-40%" width="180%" height="180%"><feDropShadow dx="0" dy="14" stdDeviation="20" flood-color="#2A2E55" flood-opacity="0.14"/></filter></defs><g filter="url(#sh)"><rect x="40" y="40" width="680" height="440" rx="24" fill="#fff"/></g><rect x="40" y="40" width="680" height="64" rx="24" fill="#F4F4F7"/><rect x="40" y="80" width="680" height="24" fill="#F4F4F7"/><circle cx="72" cy="72" r="9" fill="#3B82F6"/><rect x="92" y="66" width="120" height="12" rx="6" fill="#D9DCEA"/><rect x="600" y="60" width="88" height="26" rx="13" fill="#3B82F6"/><rect x="72" y="130" width="186" height="86" rx="14" fill="#F4F4F7"/><rect x="90" y="150" width="70" height="10" rx="5" fill="#CDD2E2"/><rect x="90" y="172" width="100" height="22" rx="6" fill="#3B82F6"/><rect x="286" y="130" width="186" height="86" rx="14" fill="#F4F4F7"/><rect x="304" y="150" width="70" height="10" rx="5" fill="#CDD2E2"/><rect x="304" y="172" width="100" height="22" rx="6" fill="#6E62E8"/><rect x="500" y="130" width="186" height="86" rx="14" fill="#F4F4F7"/><rect x="518" y="150" width="70" height="10" rx="5" fill="#CDD2E2"/><rect x="518" y="172" width="100" height="22" rx="6" fill="#1FB6A6"/><rect x="72" y="240" width="400" height="200" rx="14" fill="#F4F4F7"/><polyline points="72,400 132,360 192,300 252,330 312,250 372,280 432,210 472,230" fill="none" stroke="#3B82F6" stroke-width="5" stroke-linecap="round" stroke-linejoin="round" transform="translate(0,0)"/><polyline points="72,400 132,360 192,300 252,330 312,250 372,280 432,210 472,230 472,440 72,440" fill="#3B82F6" opacity="0.12"/><rect x="492" y="240" width="156" height="200" rx="14" fill="#F4F4F7"/><circle cx="570" cy="330" r="44" fill="none" stroke="#fff" stroke-width="18"/><path d="M570 286 A44 44 0 0 1 610 348" fill="none" stroke="#6E62E8" stroke-width="18"/><path d="M610 348 A44 44 0 0 1 540 360" fill="none" stroke="#F5A623" stroke-width="18"/></svg>