<svg xmlns="http://www.w3.org/2000/svg" viewBox="0 0 1000 760" width="1000" height="760"><defs><filter id="sh" x="-40%" y="-40%" width="180%" height="180%"><feDropShadow dx="0" dy="14" stdDeviation="20" flood-color="#2A2E55" flood-opacity="0.14"/></filter></defs><rect x="120" y="120" width="760" height="520" fill="none"/><g stroke="#C9CCE0" stroke-width="2.5" opacity="0.7"><line x1="500" y1="380" x2="225" y2="225"/><line x1="500" y1="380" x2="775" y2="225"/><line x1="500" y1="380" x2="225" y2="545"/><line x1="500" y1="380" x2="775" y2="545"/></g><g filter="url(#sh)"><rect x="150" y="150" width="150" height="150" rx="22" fill="#fff"/></g><rect x="150" y="150" width="150" height="40" rx="22" fill="#3B82F6"/><rect x="150" y="168" width="150" height="22" fill="#3B82F6"/><circle cx="170" cy="170" r="6" fill="#fff" opacity="0.9"/><rect x="184" y="165" width="60" height="9" rx="4.5" fill="#fff" opacity="0.85"/><rect x="174" y="245" width="16" height="32" rx="3" fill="#3B82F6" opacity="0.5"/><rect x="200" y="228" width="16" height="49" rx="3" fill="#3B82F6"/><rect x="226" y="238" width="16" height="39" rx="3" fill="#3B82F6" opacity="0.75"/><rect x="252" y="220" width="16" height="57" rx="3" fill="#3B82F6" opacity="0.6"/><g filter="url(#sh)"><rect x="700" y="150" width="150" height="150" rx="22" fill="#fff"/></g><rect x="700" y="150" width="150" height="40" rx="22" fill="#6E62E8"/><rect x="700" y="168" width="150" height="22" fill="#6E62E8"/><circle cx="720" cy="170" r="6" fill="#fff" opacity="0.9"/><rect x="734" y="165" width="60" height="9" rx="4.5" fill="#fff" opacity="0.85"/><rect x="724" y="212" width="100" height="8" rx="4" fill="#E6E4F2"/><rect x="724" y="228" width="108" height="8" rx="4" fill="#E6E4F2"/><rect x="724" y="244" width="80" height="8" rx="4" fill="#E6E4F2"/><rect x="724" y="260" width="96" height="8" rx="4" fill="#E6E4F2"/><rect x="724" y="212" width="100" height="8" rx="4" fill="#6E62E8" opacity="0.5"/><g filter="url(#sh)"><rect x="150" y="470" width="150" height="150" rx="22" fill="#fff"/></g><rect x="150" y="470" width="150" height="40" rx="22" fill="#F5A623"/><rect x="150" y="488" width="150" height="22" fill="#F5A623"/><circle cx="170" cy="490" r="6" fill="#fff" opacity="0.9"/><rect x="184" y="485" width="60" height="9" rx="4.5" fill="#fff" opacity="0.85"/><rect x="174" y="534" width="60" height="7" rx="3.5" fill="#F5A623" opacity="1"/><rect x="186" y="549" width="90" height="7" rx="3.5" fill="#F5A623" opacity="0.6"/><rect x="186" y="564" width="50" height="7" rx="3.5" fill="#F5A623" opacity="0.8"/><rect x="174" y="579" width="80" height="7" rx="3.5" fill="#F5A623" opacity="0.5"/><g filter="url(#sh)"><rect x="700" y="470" width="150" height="150" rx="22" fill="#fff"/></g><rect x="700" y="470" width="150" height="40" rx="22" fill="#1FB6A6"/><rect x="700" y="488" width="150" height="22" fill="#1FB6A6"/><circle cx="720" cy="490" r="6" fill="#fff" opacity="0.9"/><rect x="734" y="485" width="60" height="9" rx="4.5" fill="#fff" opacity="0.85"/><line x1="730" y1="572" x2="820" y2="572" stroke="#1FB6A6" stroke-width="4"/><circle cx="730" cy="572" r="9" fill="#1FB6A6" stroke="#1FB6A6" stroke-width="4"/><circle cx="760" cy="572" r="9" fill="#1FB6A6" stroke="#1FB6A6" stroke-width="4"/><circle cx="790" cy="572" r="9" fill="#1FB6A6" stroke="#1FB6A6" stroke-width="4"/><circle cx="820" cy="572" r="9" fill="#fff" stroke="#1FB6A6" stroke-width="4"/><g filter="url(#sh)"><circle cx="500" cy="380" r="74" fill="#fff"/></g><g transform="translate(454,334) scale(0.92)"><rect x="8" y="8" width="40" height="40" rx="11" fill="#3B82F6"/><rect x="54" y="8" width="40" height="40" rx="11" fill="#6E62E8"/><rect x="8" y="54" width="40" height="40" rx="11" fill="#F5A623"/><rect x="54" y="54" width="40" height="40" rx="11" fill="#1FB6A6" transform="rotate(14 74.0 74.0)"/></g></svg>