<svg xmlns="http://www.w3.org/2000/svg" viewBox="0 0 900 620" width="900" height="620"><defs>
<filter id="sh" x="-30%" y="-30%" width="160%" height="160%"><feDropShadow dx="0" dy="22" stdDeviation="34" flood-color="#1A1F44" flood-opacity="0.16"/></filter>
<filter id="sh2" x="-40%" y="-40%" width="180%" height="180%"><feDropShadow dx="0" dy="8" stdDeviation="16" flood-color="#1A1F44" flood-opacity="0.10"/></filter>
<linearGradient id="aBlue" x1="0" y1="0" x2="0" y2="1"><stop offset="0" stop-color="#3B82F6" stop-opacity="0.32"/><stop offset="1" stop-color="#3B82F6" stop-opacity="0"/></linearGradient>
<linearGradient id="aViolet" x1="0" y1="0" x2="0" y2="1"><stop offset="0" stop-color="#6E62E8" stop-opacity="0.30"/><stop offset="1" stop-color="#6E62E8" stop-opacity="0"/></linearGradient>
<linearGradient id="barB" x1="0" y1="0" x2="0" y2="1"><stop offset="0" stop-color="#5B9CF8"/><stop offset="1" stop-color="#3B82F6"/></linearGradient>
<radialGradient id="gB" cx="0.5" cy="0.5" r="0.5"><stop offset="0" stop-color="#3B82F6" stop-opacity="0.22"/><stop offset="1" stop-color="#3B82F6" stop-opacity="0"/></radialGradient>
<radialGradient id="gV" cx="0.5" cy="0.5" r="0.5"><stop offset="0" stop-color="#6E62E8" stop-opacity="0.20"/><stop offset="1" stop-color="#6E62E8" stop-opacity="0"/></radialGradient>
<radialGradient id="gA" cx="0.5" cy="0.5" r="0.5"><stop offset="0" stop-color="#F5A623" stop-opacity="0.18"/><stop offset="1" stop-color="#F5A623" stop-opacity="0"/></radialGradient>
<radialGradient id="gT" cx="0.5" cy="0.5" r="0.5"><stop offset="0" stop-color="#1FB6A6" stop-opacity="0.18"/><stop offset="1" stop-color="#1FB6A6" stop-opacity="0"/></radialGradient>
</defs><rect width="900" height="620" fill="none"/><g filter="url(#sh)"><rect x="24" y="20" width="852" height="580" rx="20" fill="#fff"/></g><path d="M24 40 a20 20 0 0 1 20 -20 H856 a20 20 0 0 1 20 20 V70 H24 Z" fill="#FBFAFE"/><line x1="24" y1="70" x2="876" y2="70" stroke="#EAEDF4"/><rect x="120" y="35" width="22" height="20" rx="5" fill="#EAE7F4"/><rect x="154" y="35" width="22" height="20" rx="5" fill="#EAE7F4"/><rect x="188" y="35" width="22" height="20" rx="5" fill="#EAE7F4"/><rect x="222" y="35" width="22" height="20" rx="5" fill="#EAE7F4"/><rect x="256" y="35" width="22" height="20" rx="5" fill="#EAE7F4"/><circle cx="48" cy="45" r="5.5" fill="#FF6058"/><circle cx="68" cy="45" r="5.5" fill="#FEBC2E"/><circle cx="88" cy="45" r="5.5" fill="#28C840"/><circle cx="742" cy="45" r="13" fill="#6E62E8" stroke="#fff" stroke-width="2.5"/><circle cx="764" cy="45" r="13" fill="#F5A623" stroke="#fff" stroke-width="2.5"/><circle cx="786" cy="45" r="13" fill="#1FB6A6" stroke="#fff" stroke-width="2.5"/><rect x="812" y="32" width="56" height="26" rx="8" fill="#6E62E8"/><text x="840" y="49" font-family="Arial,Helvetica,sans-serif" font-size="12" font-weight="600" fill="#FFFFFF" text-anchor="middle">Share</text><rect x="24" y="70" width="172" height="530" fill="#FBFAFE"/><line x1="196" y1="70" x2="196" y2="600" stroke="#EAEDF4"/><rect x="48" y="110" width="6" height="18" rx="3" fill="#6E62E8"/><rect x="64" y="115" width="90" height="8" rx="4" fill="#C9C1EC"/><rect x="48" y="150" width="6" height="18" rx="3" fill="#D8D3EC"/><rect x="64" y="155" width="120" height="8" rx="4" fill="#E3DEF1"/><rect x="48" y="190" width="6" height="18" rx="3" fill="#D8D3EC"/><rect x="64" y="195" width="80" height="8" rx="4" fill="#E3DEF1"/><rect x="48" y="230" width="6" height="18" rx="3" fill="#D8D3EC"/><rect x="64" y="235" width="110" height="8" rx="4" fill="#E3DEF1"/><rect x="48" y="270" width="6" height="18" rx="3" fill="#D8D3EC"/><rect x="64" y="275" width="70" height="8" rx="4" fill="#E3DEF1"/><text x="236" y="128" font-family="Arial,Helvetica,sans-serif" font-size="26" font-weight="700" fill="#1E1E24" text-anchor="start">Product Spec</text><circle cx="242" cy="150" r="11" fill="#6E62E8"/><text x="262" y="156" font-family="Arial,Helvetica,sans-serif" font-size="12" font-weight="400" fill="#AEB3C6" text-anchor="start">by Lena · 2m ago</text><rect x="236" y="184" width="580" height="8" rx="4" fill="#EAEDF4"/><rect x="236" y="206" width="600" height="8" rx="4" fill="#EAEDF4"/><rect x="236" y="228" width="540" height="8" rx="4" fill="#EAEDF4"/><rect x="230" y="252" width="430" height="22" rx="6" fill="#FEF3E0"/><rect x="236" y="259" width="400" height="9" rx="4" fill="#D9A94E"/><rect x="236" y="292" width="600" height="8" rx="4" fill="#EAEDF4"/><rect x="236" y="314" width="560" height="8" rx="4" fill="#EAEDF4"/><circle cx="242" cy="353" r="4" fill="#6E62E8"/><rect x="258" y="348" width="420" height="8" rx="4" fill="#EAEDF4"/><circle cx="242" cy="379" r="4" fill="#6E62E8"/><rect x="258" y="374" width="420" height="8" rx="4" fill="#EAEDF4"/><circle cx="242" cy="405" r="4" fill="#6E62E8"/><rect x="258" y="400" width="420" height="8" rx="4" fill="#EAEDF4"/><rect x="236" y="436" width="430" height="110" rx="12" fill="#F2F0FA"/><circle cx="296" cy="491" r="20" fill="#DCD6F0"/><path d="M266 521 l40 -34 l34 26 l30 -20 l50 28 Z" fill="#DCD6F0"/><g filter="url(#sh2)"><rect x="690" y="250" width="170" height="92" rx="14" fill="#fff"/></g><circle cx="716" cy="278" r="13" fill="#F5A623"/><rect x="736" y="272" width="96" height="9" rx="4" fill="#EAE6F4"/><rect x="708" y="300" width="140" height="8" rx="4" fill="#EFECF6"/><rect x="708" y="318" width="96" height="8" rx="4" fill="#EFECF6"/><g transform="translate(560,300)"><path d="M2 2 L2 26 L9 19 L14 28 L19 25 L14 16 L22 16 Z" fill="#1FB6A6" stroke="#fff" stroke-width="1.5"/><rect x="20" y="20" width="52" height="20" rx="10" fill="#1FB6A6"/></g></svg>