<svg xmlns="http://www.w3.org/2000/svg" viewBox="0 0 242.81 52" width="242.81" height="52"><rect x="0" y="22" width="15" height="30" rx="4" fill="#FFC53D"/><rect x="21" y="0" width="15" height="52" rx="4" fill="#3B82F6"/><rect x="42" y="12" width="15" height="40" rx="4" fill="#FB5A5A"/><path d="M23.660218980577255 46.958333333333336Q16.770866478814018 46.958333333333336 11.909978400336371 43.934260559082034Q7.049090321858723 40.91018778483073 4.482878494262695 35.51157667371962Q1.9166666666666665 30.112965562608508 1.9166666666666665 23.0Q1.9166666666666665 15.887034437391495 4.482878494262695 10.488423326280385Q7.049090321858723 5.089812215169275 11.909978400336371 2.065739440917973Q16.770866478814018 -0.9583333333333286 23.660218980577255 -0.9583333333333286Q31.625031195746526 -0.9583333333333286 36.85328136020237 3.0613370683458143Q42.0815315246582 7.081007470024957 44.12598571777343 13.88516828748915L37.35364261203342 15.716686164008248Q35.99068484836154 10.893114047580298 32.567328940497504 8.140594397650826Q29.14397303263346 5.388074747721355 23.660218980577255 5.388074747721355Q18.772750176323783 5.388074747721355 15.519761064317489 7.592225816514759Q12.266771952311197 9.796376885308163 10.626967536078558 13.762786398993601Q8.987163119845919 17.72919591267904 8.965868123372395 23.0Q8.94457312689887 28.270804087320965 10.58437754313151 32.23188985188802Q12.224181959364149 36.19297561645508 15.498466067843966 38.40245043436686Q18.772750176323783 40.611925252278645 23.660218980577255 40.611925252278645Q29.14397303263346 40.611925252278645 32.567328940497504 37.84343338012695Q35.99068484836154 35.07494150797526 37.35364261203342 30.283313835991756L44.12598571777343 32.11483171251085Q42.0815315246582 38.91899252997504 36.85328136020237 42.93866293165419Q31.625031195746526 46.958333333333336 23.660218980577255 46.958333333333336ZM50.59105555555555 46.0V11.5H56.53282750786675V19.86944834391276L55.70227195231119 18.783337232801653Q56.33051529269748 17.12221832275391 57.352743364122176 15.737953864203561Q58.37497143554687 14.353689405653213 59.727303148057715 13.459241061740457Q61.02637397257486 12.490271928575304 62.650207141452356 11.963194444444447Q64.27404031032985 11.43611696031359 65.96708806694878 11.324311404758035Q67.6601358235677 11.21250584920248 69.20411860487195 11.5V17.761224195692275Q67.53237364366319 17.30335447523329 65.46664297654894 17.500341966417103Q63.40091230943467 17.697329457600915 61.68657150607638 18.826009114583336Q60.05741068861219 19.85885933770074 59.10439525519476 21.37087525261773Q58.15137982177734 22.882891167534723 57.73609424506293 24.719681125217015Q57.32080866834852 26.556471082899307 57.32080866834852 28.57961663140191V46.0ZM90.04419234212239 46.958333333333336Q84.87983204142252 46.958333333333336 81.00921979098848 44.70092430114747Q77.13860754055446 42.44351526896159 74.97702599249945 38.407868745591905Q72.81544444444444 34.37222222222222 72.81544444444444 29.048157246907554Q72.81544444444444 23.39399058024089 74.93975682406955 19.241210852728955Q77.06406920369466 15.088431125217017 80.8601421424018 12.815048895941844Q84.65621508110894 10.541666666666671 89.70344120279947 10.541666666666671Q94.97428428480359 10.541666666666671 98.67984568956162 12.990747239854604Q102.38540709431965 15.439827813042537 104.22221167500813 19.944002278645836Q106.0590162556966 24.448176744249135 105.696968170166 30.624107869466147H99.00981479899087V28.19628329806858Q98.9459298095703 22.20142008463542 96.72582406616209 19.331777954101565Q94.50571832275389 16.46213582356771 89.95900455729165 16.46213582356771Q84.95440937296549 16.46213582356771 82.4308245832655 19.619283803304036Q79.90723979356552 22.776431783040366 79.90723979356552 28.75Q79.90723979356552 34.425410970052084 82.4308245832655 37.53996505737305Q84.95440937296549 40.654519144694014 89.70344120279947 40.654519144694014Q92.83396166314017 40.654519144694014 95.12328491889104 39.23833363850912Q97.41260817464192 37.822148132324216 98.6903664550781 35.160144890679256L105.22846070014106 37.24720662434896Q103.22661209784613 41.868509419759114 99.13771638488768 44.413421376546225Q95.04882067192924 46.958333333333336 90.04419234212239 46.958333333333336ZM77.73498637559678 30.624107869466147V25.427734883626304H102.353398308648V30.624107869466147ZM125.47225893825953 46.93703833685981Q119.17918973456487 46.93703833685981 115.21807569885252 44.15253719753689Q111.25696166314017 41.368036058213974 110.37316666666665 36.33143988715278L117.20940256076386 35.26660817464193Q117.85893309868705 37.949925910101996 120.16423052639429 39.504544491238065Q122.46952795410154 41.05916307237413 125.9194928588867 41.05916307237413Q129.06064911905924 41.05916307237413 130.83353556484644 39.78140771653917Q132.60642201063365 38.50365236070421 132.60642201063365 36.267578294542105Q132.60642201063365 34.9578736199273 131.98883591715492 34.143301984998914Q131.37124982367618 33.32873035007053 129.38538319227428 32.59401592678494Q127.39951656087237 31.85930150349935 123.34259161376951 30.77319624159071Q118.89167998589407 29.601905144585505 116.298860136244 28.286857223510744Q113.70604028659395 26.971809302435982 112.59330848015676 25.198886786566842Q111.4805766737196 23.4259642706977 111.4805766737196 20.891697862413196Q111.4805766737196 17.761130608452692 113.15233723280163 15.429179339938697Q114.82409779188366 13.097228071424702 117.83752794223359 11.819447369045687Q120.85095809258353 10.541666666666671 124.89726283772785 10.541666666666671Q128.8690272962782 10.541666666666671 131.97296410624185 11.792823749118384Q135.0769009162055 13.043980831570096 136.98824480862083 15.328009584214954Q138.8995887010362 17.61203833685981 139.29357343207462 20.678708902994792L132.45733753797742 21.913916185167103Q132.10595644802515 19.43293211195204 130.1201102888319 17.990127860175242Q128.13426412963867 16.54732360839844 124.96115952555337 16.419541931152345Q121.92647629801431 16.29176220364041 120.0471041463216 17.431093258327913Q118.16773199462888 18.570424313015412 118.16773199462888 20.550950622558595Q118.16773199462888 21.690287526448568 118.89179989454479 22.48356319003635Q119.6158677944607 23.276838853624135 121.69224985928003 24.022202724880643Q123.76863192409937 24.767566596137154 127.8149269205729 25.789788818359376Q132.1593460184733 26.907838524712457 134.70956710137258 28.260153664482964Q137.25978818427188 29.612468804253474 138.3725180409749 31.47589700486925Q139.48524789767794 33.339325205485025 139.48524789767794 36.0120110405816Q139.48524789767794 41.112486351860895 135.75838954671224 44.024762344360354Q132.0315311957465 46.93703833685981 125.47225893825953 46.93703833685981ZM165.72400293646916 46.0Q162.476297604031 46.63889083862305 159.34572352600094 46.53773473103841Q156.2151494479709 46.43657862345378 153.7554126027425 45.323845842149524Q151.2956757575141 44.21111306084527 150.02853767903645 41.80462443033854Q148.92111987304685 39.66433300442166 148.8465834859212 37.45482796563043Q148.77204709879555 35.245322926839194 148.77204709879555 32.43419426812066V1.9166666666666714H155.45920631917315V32.093443128797745Q155.45920631917315 34.18047561645508 155.50712298583983 35.713813824123804Q155.55503965250648 37.24715203179254 156.16198409695093 38.29066535101997Q157.31198409695094 40.27121115790473 159.82494770982527 40.55337960984971Q162.33791132269963 40.835548061794704 165.72400293646916 40.33509029812283ZM142.14894444444442 16.866748555501303V11.5H165.72400293646916V16.866748555501303Z" transform="translate(77.08,3.00)" fill="#1A1A1E"/></svg>